HIERARCHY
ROOT Hips
{
	OFFSET 0.000000 0.000000 0.000000
	CHANNELS 6 Xposition Yposition Zposition Zrotation Yrotation Xrotation 
	JOINT LeftUpLeg_virtual
	{
		OFFSET 0.000000 0.000000 0.000000
		CHANNELS 3 Zrotation Yrotation Xrotation
		JOINT LeftUpLeg
		{
			OFFSET 8.479694 -4.795517 -0.379053
			CHANNELS 3 Zrotation Yrotation Xrotation
			JOINT LeftLeg
			{
				OFFSET 0.485052 -32.551468 0.112863
				CHANNELS 3 Zrotation Yrotation Xrotation
				JOINT LeftFoot
				{
					OFFSET 0.438033 -32.635670 -3.012641
					CHANNELS 3 Zrotation Yrotation Xrotation
					JOINT LeftToeBase
					{
						OFFSET 0.970169 -13.225353 11.864223
						CHANNELS 3 Zrotation Yrotation Xrotation
						End Site
						{
							OFFSET 0.000000 0.000000 0.000000
						}
					}
				}
			}
		}
	}
	JOINT RightUpLeg_virtual
	{
		OFFSET 0.000000 0.000000 0.000000
		CHANNELS 3 Zrotation Yrotation Xrotation
		JOINT RightUpLeg
		{
			OFFSET -8.479694 -4.795517 -0.379053
			CHANNELS 3 Zrotation Yrotation Xrotation
			JOINT RightLeg
			{
				OFFSET -0.484100 -32.551483 0.112903
				CHANNELS 3 Zrotation Yrotation Xrotation
				JOINT RightFoot
				{
					OFFSET -0.438985 -32.635651 -3.012681
					CHANNELS 3 Zrotation Yrotation Xrotation
					JOINT RightToeBase
					{
						OFFSET -0.970169 -13.225354 11.864223
						CHANNELS 3 Zrotation Yrotation Xrotation
						End Site
						{
							OFFSET 0.000000 0.000000 0.000000
						}
					}
				}
			}
		}
	}
	JOINT Spine_virtual
	{
		OFFSET 0.000000 0.000000 0.000000
		CHANNELS 3 Zrotation Yrotation Xrotation
		JOINT Spine
		{
			OFFSET 0.000000 7.722015 1.166203
			CHANNELS 3 Zrotation Yrotation Xrotation
			JOINT Spine1
			{
				OFFSET 0.000000 12.024086 0.248766
				CHANNELS 3 Zrotation Yrotation Xrotation
				JOINT Spine2
				{
					OFFSET -0.000000 11.503036 -0.491240
					CHANNELS 3 Zrotation Yrotation Xrotation
					JOINT Neck_virtual
					{
						OFFSET 0.000000 0.000000 0.000000
						CHANNELS 3 Zrotation Yrotation Xrotation
						JOINT Neck
						{
							OFFSET 0.000000 18.430687 -3.123054
							CHANNELS 3 Zrotation Yrotation Xrotation
							JOINT Head
							{
								OFFSET -0.000000 9.051071 1.034021
								CHANNELS 3 Zrotation Yrotation Xrotation
								End Site
								{
									OFFSET 0.000000 0.000000 0.000000
								}
							}
						}
					}
					JOINT LeftShoulder_virtual
					{
						OFFSET 0.000000 0.000000 0.000000
						CHANNELS 3 Zrotation Yrotation Xrotation
						JOINT LeftShoulder
						{
							OFFSET 6.197824 13.665230 -4.064723
							CHANNELS 3 Zrotation Yrotation Xrotation
							JOINT LeftArm
							{
								OFFSET 7.778132 -0.187073 -1.709282
								CHANNELS 3 Zrotation Yrotation Xrotation
								JOINT LeftForeArm
								{
									OFFSET 21.954697 0.000000 -2.041093
									CHANNELS 3 Zrotation Yrotation Xrotation
									JOINT LeftHand
									{
										OFFSET 22.992908 0.000000 -0.870901
										CHANNELS 3 Zrotation Yrotation Xrotation
										End Site
										{
											OFFSET 0.000000 0.000000 0.000000
										}
									}
								}
							}
						}
					}
					JOINT RightShoulder_virtual
					{
						OFFSET 0.000000 0.000000 0.000000
						CHANNELS 3 Zrotation Yrotation Xrotation
						JOINT RightShoulder
						{
							OFFSET -6.197824 13.665230 -4.064723
							CHANNELS 3 Zrotation Yrotation Xrotation
							JOINT RightArm
							{
								OFFSET -7.778132 -0.187073 -1.709282
								CHANNELS 3 Zrotation Yrotation Xrotation
								JOINT RightForeArm
								{
									OFFSET -21.954697 0.000000 -2.041093
									CHANNELS 3 Zrotation Yrotation Xrotation
									JOINT RightHand
									{
										OFFSET -22.992908 0.000000 -0.870901
										CHANNELS 3 Zrotation Yrotation Xrotation
										End Site
										{
											OFFSET 0.000000 0.000000 0.000000
										}
									}
								}
							}
						}
					}
				}
			}
		}
	}
}
MOTION
Frames: 13
Frame Time: 0.033333
-52.240253 81.714142 87.401558 179.874029 26.593333 179.677483 -3.519021 -1.386112 8.976604 -0.317104 7.168563 -25.494791 7.449816 5.999302 30.722030 -2.555135 -10.404738 -8.818951 0.000000 0.000000 0.000000 -0.058160 -3.258213 8.031582 -2.643153 -5.458451 -20.922929 -4.233754 1.112345 26.252225 4.258900 6.318126 -10.007915 0.000000 0.000000 0.000000 2.237409 1.785264 -2.847619 1.356277 -1.785205 -6.915490 -1.149070 -1.411184 8.375234 0.052076 0.147085 -0.052829 -1.506219 -0.013022 8.619856 -4.594601 1.114224 -5.517679 0.000000 0.000000 0.000000 0.670951 0.621744 5.911110 -8.093655 2.857841 2.628520 -68.863415 -0.410826 10.040248 7.642485 -21.682845 14.112183 0.000000 0.000000 0.000000 -4.595622 2.214400 4.889060 29.405628 -1.207046 6.725996 50.358261 1.054875 13.369724 -5.044139 28.176976 -3.533867 0.000000 0.000000 0.000000 
-52.182545 81.727386 87.413239 179.889697 27.364724 179.633579 -3.471151 -1.023323 9.053522 -0.490411 8.044712 -25.432411 7.354638 6.463621 30.843662 -2.683326 -10.517917 -9.459423 0.000000 0.000000 0.000000 -0.091262 -3.966526 7.851490 -2.502733 -6.276357 -21.091293 -4.450808 0.520036 25.735816 4.032520 6.013511 -10.267792 0.000000 0.000000 0.000000 2.242483 1.919413 -2.832185 1.369845 -1.696934 -6.843558 -1.167104 -1.311822 8.383521 0.009739 0.257015 -0.085903 -1.487260 -0.078357 8.688661 -4.605022 1.280271 -5.551951 0.000000 0.000000 0.000000 0.727339 0.795106 5.822136 -8.130868 3.116167 2.717305 -69.001610 0.092450 9.967099 7.794891 -21.404749 13.728694 0.000000 0.000000 0.000000 -4.549833 2.502965 4.921188 29.471126 -1.012642 6.720256 50.375729 1.074499 13.543819 -5.028834 28.340996 -3.485858 0.000000 0.000000 0.000000 
-52.119301 81.753899 87.457008 179.862103 27.156923 179.462073 -3.522088 -1.033753 9.187799 -0.421548 8.177619 -25.307698 7.269910 6.340938 30.610312 -2.862939 -10.514114 -9.303461 0.000000 0.000000 0.000000 -0.092919 -3.939803 7.927382 -2.459368 -6.425139 -20.918334 -4.424101 0.480491 25.550310 4.030096 5.948894 -10.305112 0.000000 0.000000 0.000000 2.192327 2.007491 -2.765222 1.292982 -1.577082 -6.769701 -1.140461 -1.206746 8.471444 -0.029805 0.300957 -0.107033 -1.549335 0.090703 8.705555 -4.521208 1.130718 -5.549864 0.000000 0.000000 0.000000 0.687015 0.714448 6.006234 -8.084072 3.028976 2.640873 -69.054913 0.454555 10.008829 7.822143 -21.158982 13.647137 0.000000 0.000000 0.000000 -4.553457 2.309485 4.973988 29.580419 -1.062213 6.707291 50.436784 1.092816 13.671186 -4.980521 28.358843 -3.424570 0.000000 0.000000 0.000000 
-52.076424 81.796364 87.548592 179.876665 26.922987 179.504516 -3.562369 -1.018762 9.197671 -0.289481 8.168531 -25.292341 7.136940 6.263556 30.280083 -3.070290 -10.468784 -8.937228 0.000000 0.000000 0.000000 -0.066084 -3.957753 7.885088 -2.386146 -6.590075 -20.787238 -4.419422 0.449921 25.371639 4.021150 5.871398 -10.261937 0.000000 0.000000 0.000000 2.151066 2.080200 -2.758315 1.241098 -1.679147 -6.755308 -1.104235 -1.257904 8.454410 -0.049449 0.289066 -0.062050 -1.561221 0.047409 8.699019 -4.507140 1.140114 -5.721337 0.000000 0.000000 0.000000 0.652765 0.751813 5.943852 -8.008889 3.138769 2.609263 -69.240933 0.894786 10.269273 7.904738 -20.909041 13.423778 0.000000 0.000000 0.000000 -4.624430 2.388557 4.988507 29.592382 -0.989473 6.647183 50.652604 0.903915 14.007770 -5.053920 28.393503 -3.370926 0.000000 0.000000 0.000000 
-52.063961 81.837181 87.655838 179.903085 26.629154 179.617952 -3.587659 -0.861457 8.883823 -0.129785 7.976883 -25.060666 7.045939 6.260196 30.038011 -3.312867 -10.491146 -8.844245 0.000000 0.000000 0.000000 -0.030519 -3.978824 7.759095 -2.323949 -6.749503 -20.713493 -4.407355 0.418447 25.277967 4.009931 5.780063 -10.159278 0.000000 0.000000 0.000000 2.120647 2.125948 -2.814165 1.160186 -1.723928 -6.797413 -1.121685 -1.263764 8.514891 -0.039069 0.282816 -0.099191 -1.517909 0.241517 8.768986 -4.372006 1.165448 -5.903923 0.000000 0.000000 0.000000 0.742357 0.686228 5.973577 -7.924879 3.015940 2.593306 -69.463379 1.060887 10.759097 7.953883 -20.886561 13.241693 0.000000 0.000000 0.000000 -4.506811 2.333346 5.078411 29.551162 -0.889587 6.563322 50.788710 0.648785 14.248118 -5.201464 28.375843 -3.351731 0.000000 0.000000 0.000000 
-52.103741 81.856331 87.768059 179.932987 26.095653 179.541412 -3.600015 -0.772814 8.778732 0.058128 7.458649 -24.904523 6.966898 6.329958 29.902503 -3.556204 -10.516353 -8.672600 0.000000 0.000000 0.000000 -0.017782 -4.069567 7.755856 -2.302552 -6.991031 -20.601174 -4.392266 0.333199 25.238500 4.005136 5.675381 -10.121606 0.000000 0.000000 0.000000 2.064872 1.978980 -2.710831 1.065862 -1.896378 -6.795299 -1.095480 -1.338704 8.564171 -0.025181 0.198633 -0.053551 -1.534123 0.014760 8.771427 -4.308802 1.213212 -6.096959 0.000000 0.000000 0.000000 0.760940 0.758151 6.023720 -7.924299 3.013044 2.524432 -69.388937 0.790793 11.348770 7.991314 -21.076120 12.927981 0.000000 0.000000 0.000000 -4.451061 2.383854 5.196650 29.486285 -0.768037 6.410610 50.974644 0.364055 14.523497 -5.302716 28.334744 -3.216626 0.000000 0.000000 0.000000 
-52.190205 81.861671 87.862808 179.959529 25.974914 179.561247 -3.602673 -0.691266 8.756727 0.038824 7.569858 -24.893255 6.880753 6.450741 29.690822 -3.739338 -10.482646 -8.545925 0.000000 0.000000 0.000000 0.013240 -3.936644 7.727634 -2.348016 -7.083336 -20.690216 -4.365796 0.338163 25.313875 4.043729 5.593973 -10.029186 0.000000 0.000000 0.000000 2.049276 2.044881 -2.602006 0.940174 -1.885323 -6.856369 -1.051353 -1.272411 8.577311 -0.002680 0.239193 -0.059544 -1.545828 -0.088313 8.872181 -4.127520 1.077694 -6.289779 0.000000 0.000000 0.000000 0.732302 0.692880 6.136434 -7.867904 2.755732 2.458670 -69.225716 0.225895 12.090046 7.921018 -21.540100 13.002109 0.000000 0.000000 0.000000 -4.418816 2.329393 5.251511 29.356969 -0.713769 6.284829 51.169294 -0.000272 14.730222 -5.485132 28.194695 -3.246539 0.000000 0.000000 0.000000 
-52.313389 81.862213 87.935547 -179.994759 25.817159 179.619850 -3.587189 -0.703753 8.773907 -0.024474 7.607537 -24.992945 6.856423 6.550764 29.543816 -3.893811 -10.402445 -8.433699 0.000000 0.000000 0.000000 0.065894 -3.900625 7.737050 -2.413931 -7.177846 -20.919881 -4.320023 0.381871 25.439502 4.074573 5.486979 -9.912206 0.000000 0.000000 0.000000 2.014781 2.039624 -2.572225 0.831558 -2.018997 -6.887497 -1.052113 -1.336687 8.686730 -0.029826 0.217288 -0.048198 -1.457195 0.021223 8.921928 -3.795368 1.166721 -6.489530 0.000000 0.000000 0.000000 0.801392 0.749228 6.153256 -7.897765 2.528696 2.419786 -68.902074 -0.617342 12.789697 7.875228 -22.308561 12.804705 0.000000 0.000000 0.000000 -4.355426 2.453383 5.266456 29.105212 -0.617545 6.137669 51.355407 -0.383241 14.726277 -5.591476 28.074051 -3.149306 0.000000 0.000000 0.000000 
-52.476749 81.866547 87.969055 179.993680 25.927494 179.634767 -3.576090 -0.708378 8.839063 -0.107041 7.517178 -25.122517 6.880996 6.744303 29.472014 -4.032709 -10.247961 -8.275613 0.000000 0.000000 0.000000 0.115894 -3.810683 7.769462 -2.543346 -7.173530 -21.221850 -4.215004 0.621587 25.638951 4.071858 5.329760 -9.757244 0.000000 0.000000 0.000000 1.905436 2.009669 -2.501703 0.730609 -2.034072 -6.900783 -0.982200 -1.290106 8.755074 0.010001 0.210996 -0.105467 -1.516957 -0.157842 9.075618 -3.411517 1.095873 -6.624514 0.000000 0.000000 0.000000 0.836772 0.729276 6.285253 -7.974361 2.199469 2.399462 -68.558946 -1.828552 13.230315 7.774049 -23.549167 12.559501 0.000000 0.000000 0.000000 -4.360365 2.412226 5.473286 28.806500 -0.459210 6.025665 51.502102 -0.663966 14.618551 -5.789384 27.781521 -3.234888 0.000000 0.000000 0.000000 
-52.653111 81.884727 87.982079 179.976878 26.248280 179.517589 -3.612805 -0.636742 8.933695 -0.215132 7.517968 -25.112408 6.955109 6.909810 29.370257 -4.147578 -9.993588 -8.209009 0.000000 0.000000 0.000000 0.138647 -3.704850 7.878178 -2.690060 -7.166050 -21.429541 -4.141773 0.768518 25.851651 4.106677 5.220757 -9.620658 0.000000 0.000000 0.000000 1.800831 2.067580 -2.311129 0.735454 -2.010136 -6.838541 -0.993072 -1.220655 8.688197 0.006061 0.284598 -0.043832 -1.446989 0.061436 9.096566 -2.887431 1.227301 -6.710543 0.000000 0.000000 0.000000 0.833127 0.631084 6.416545 -8.142663 1.733934 2.327291 -68.100770 -3.292878 13.375321 7.597859 -24.769133 12.517104 0.000000 0.000000 0.000000 -4.304829 2.324643 5.553616 28.343301 -0.476536 5.728177 51.694140 -1.141908 14.282471 -5.950971 27.673459 -3.164211 0.000000 0.000000 0.000000 
-52.810493 81.908073 88.024185 179.918002 26.434007 179.553092 -3.673896 -0.769626 8.840613 -0.245863 7.242081 -25.053388 7.109182 7.101660 29.253639 -4.267479 -9.660583 -8.070544 0.000000 0.000000 0.000000 0.129773 -3.710951 7.821189 -2.758989 -7.220232 -21.783977 -4.056400 0.840196 26.156406 4.096595 5.095523 -9.429284 0.000000 0.000000 0.000000 1.693291 2.029354 -2.389502 0.657717 -2.167770 -6.793278 -0.931741 -1.346411 8.847009 0.025535 0.213193 -0.090658 -1.427351 -0.118519 9.256471 -2.148816 1.053974 -6.727861 0.000000 0.000000 0.000000 0.836434 0.668974 6.483891 -8.490738 1.373825 2.357360 -67.521720 -4.854381 13.228196 7.367565 -26.211942 12.449701 0.000000 0.000000 0.000000 -4.298115 2.344529 5.629921 27.804086 -0.396701 5.518316 51.769631 -1.533596 14.039770 -6.170973 27.610333 -3.292856 0.000000 0.000000 0.000000 
-52.940758 81.911842 88.118896 179.857623 26.742875 179.533066 -3.800993 -0.829068 8.702939 -0.246365 6.772578 -24.900168 7.304533 7.251602 29.161827 -4.391931 -9.289624 -8.016929 0.000000 0.000000 0.000000 0.048596 -3.641734 7.767440 -2.762267 -7.338792 -22.186667 -3.960116 0.914965 26.649440 4.068309 5.005898 -9.302774 0.000000 0.000000 0.000000 1.556939 1.974902 -2.376994 0.660087 -2.194716 -6.646417 -0.881736 -1.368253 8.900001 0.007786 0.192193 -0.096710 -1.365509 -0.352297 9.363559 -1.418855 1.017825 -6.694804 0.000000 0.000000 0.000000 0.885287 0.610988 6.585845 -8.879378 0.853664 2.349746 -66.965934 -6.489114 12.754689 7.054812 -27.510264 12.547565 0.000000 0.000000 0.000000 -4.296893 2.218840 5.761303 27.217785 -0.416208 5.263777 51.971241 -1.825083 13.880438 -6.237115 27.756610 -3.337893 0.000000 0.000000 0.000000 
-52.989857 81.886742 88.278770 179.788242 27.467959 179.532479 -3.839892 -0.675830 8.583115 -0.164345 6.268973 -24.774744 7.575178 7.622552 29.034492 -4.405093 -8.819431 -8.178025 0.000000 0.000000 0.000000 -0.046762 -3.420980 7.678447 -2.665969 -7.392223 -22.833077 -3.844841 1.104365 27.419593 3.985715 4.954880 -9.228760 0.000000 0.000000 0.000000 1.460818 2.082289 -2.335264 0.675644 -2.226194 -6.453516 -0.865537 -1.417673 8.972071 -0.025681 0.216114 -0.058313 -1.126148 -0.051348 9.484569 -0.514771 0.837674 -6.565448 0.000000 0.000000 0.000000 0.935188 0.508914 6.694752 -9.354476 0.388074 2.324340 -66.357084 -7.974236 12.000289 6.797179 -28.563346 12.555856 0.000000 0.000000 0.000000 -4.194056 2.156623 5.759935 26.597984 -0.402617 5.034291 52.182358 -1.936689 13.965341 -6.375759 28.014777 -3.631764 0.000000 0.000000 0.000000 
